<svg width="63" height="28" viewBox="0 0 63 28" fill="none" xmlns="http://www.w3.org/2000/svg">
<path d="M12.377 22.8867L0.142578 15.2754V12.375L12.377 4.48242V8.63086L3.25391 13.6758L12.377 18.8789V22.8867ZM24.5762 0.351562L18.1426 27.457H14.9961L21.4473 0.351562H24.5762ZM46.0391 9.35156C46.0391 10.418 45.9805 11.3672 45.8633 12.1992C45.7461 13.0312 45.5879 13.7461 45.3887 14.3438C45.2012 14.9297 44.9375 15.4336 44.5977 15.8555C44.2695 16.2773 43.918 16.6172 43.543 16.875C43.1797 17.1328 42.7344 17.3379 42.207 17.4902C41.6914 17.6309 41.1758 17.7246 40.6602 17.7715C40.1562 17.8184 39.5645 17.8418 38.8848 17.8418H31.9062V27H28.3555V0.808594H37.8477C38.9375 0.808594 39.8574 0.855469 40.6074 0.949219C41.3691 1.03125 42.0723 1.18945 42.7168 1.42383C43.3613 1.6582 43.877 1.97461 44.2637 2.37305C44.6504 2.77148 44.9844 3.29297 45.2656 3.9375C45.5469 4.58203 45.7402 5.34375 45.8457 6.22266C45.9629 7.08984 46.0273 8.13281 46.0391 9.35156ZM42.4883 9.1582C42.4766 8.31445 42.4531 7.62891 42.418 7.10156C42.3828 6.57422 42.3125 6.07617 42.207 5.60742C42.1133 5.13867 41.9844 4.78125 41.8203 4.53516C41.668 4.28906 41.4512 4.07812 41.1699 3.90234C40.9004 3.71484 40.5781 3.5918 40.2031 3.5332C39.8398 3.47461 39.3828 3.44531 38.832 3.44531H31.9062V15.1875H38.1113C39.0254 15.1875 39.7695 15.1113 40.3438 14.959C40.918 14.8066 41.3633 14.5547 41.6797 14.2031C42.0078 13.8398 42.2246 13.418 42.3301 12.9375C42.4473 12.457 42.5059 11.8359 42.5059 11.0742C42.5059 10.8867 42.5 10.582 42.4883 10.1602C42.4883 9.73828 42.4883 9.4043 42.4883 9.1582ZM62.0879 15.2754L49.8184 22.8867V18.8965L58.959 13.6934L49.8184 8.63086V4.48242L62.0879 12.375V15.2754Z" fill="#6E07F3"/>
</svg>
