<?xml version="1.0" encoding="UTF-8"?> <svg xmlns="http://www.w3.org/2000/svg" xmlns:xlink="http://www.w3.org/1999/xlink" id="Layer_1" x="0px" y="0px" viewBox="0 0 1721.2 967.7" style="enable-background:new 0 0 1721.2 967.7;" xml:space="preserve"> <style type="text/css"> .st0{fill:#F4CFBA;} .st1{fill:#30A686;} .st2{fill:#B8B7B8;} .st3{fill:#EAEAEA;} .st4{fill:#969595;} .st5{fill:#DCDCDB;} .st6{fill:#5F472C;} .st7{fill:#DEDEDE;} .st8{fill:#FCFCFC;} .st9{fill:#3E3F3F;} .st10{fill:#FFFFFF;} .st11{fill:none;} .st12{fill:#F3CEBA;} .st13{fill:#313131;} .st14{fill:#211E1F;} .st15{fill:#BBBAB9;} .st16{fill:#231F20;} .st17{fill:#CEDFEF;} .st18{fill:#F4C8C6;} .st19{fill:#DDDDDD;} .st20{fill:#528EC0;} .st21{fill:#E8B49A;} .st22{fill:#2A8D71;} .st23{fill:#297F67;} .st24{fill:#83C8B6;} .st25{fill:#616262;} .st26{fill:#C0D9ED;} .st27{fill:#30A687;} .st28{clip-path:url(#SVGID_2_);} .st29{clip-path:url(#SVGID_4_);} .st30{fill:#31A888;} .st31{fill:#ABCCE7;} .st32{fill:#E9B59B;} .st33{fill:#E9EFF8;} .st34{fill:#B7B7B7;} .st35{fill:#767576;} .st36{fill:#3E3E3E;} .st37{fill:#979797;} .st38{fill:#C6322E;} .st39{fill:#32A182;} .st40{fill:#727373;} .st41{fill:#939090;} .st42{fill:#FFFFFF;stroke:#FFFFFF;stroke-width:3;stroke-linecap:round;stroke-miterlimit:10;} .st43{fill:#765A36;} .st44{fill:#2C78B4;} .st45{fill:#604629;} .st46{fill:#B0CDE4;} </style> <title>Artboard 2 copy</title> <path class="st0" d="M1045.3,585.2c0-21.2,9.3-32.6,9.3-32.6l16.6-0.3l-5.5,22.1c0.2,0.5,0.2,1,0.1,1.5l-1.8,11.8 c-3.4-1.1-7.1-0.5-10,1.5c-0.6-1.7-2.4-2.7-4.2-2.1c-0.7,0.2-1.2,0.6-1.6,1.2C1046.6,588.1,1045.4,586.8,1045.3,585.2L1045.3,585.2z "></path> <path class="st1" d="M1071.3,449.3L1049.4,552c-0.2,0.9,0.4,1.7,1.2,1.9c0.1,0,0.3,0,0.4,0l20-0.9L1071.3,449.3z"></path> <path class="st2" d="M1010.5,591.6l58.6-24c2.7-1.1,5.8,0.2,6.9,2.9c0,0,0,0,0,0.1l0,0c1.1,2.7-0.3,5.8-3,6.9c0,0,0,0-0.1,0 l-59.6,21.6L1010.5,591.6z"></path> <circle class="st3" cx="1070.8" cy="572.4" r="2.6"></circle> <path class="st2" d="M986.8,599.3l11.2-4.3l4.4,11.5l-10.7,4.1c4,3.2,9.7,4.7,14.7,2.7c7.6-3,11.4-11.5,8.5-19.2 s-11.5-11.4-19.2-8.5C990.3,587.7,987.3,594,986.8,599.3z"></path> <path class="st2" d="M1015.3,603.8c1.6-4.1,5-7.3,9.1-8.8l-11.2,3.2L1015.3,603.8z"></path> <path class="st2" d="M1008.8,586.8c2.5,1.3,6.3,2.5,12.5,0.4l-10.3,5.1L1008.8,586.8z"></path> <polygon class="st4" points="1002.4,606.5 1001.3,606.9 1004.1,613.9 1005,613.8 "></polygon> <polygon class="st4" points="991.7,610.6 990.8,609.8 1002,605.5 1002.4,606.5 "></polygon> <polygon class="st4" points="996.9,595.4 997.9,595 994.5,586.2 993.3,587 "></polygon> <path class="st5" d="M1081.6,843.3c0,0-0.7,10-44.9,12.6c-41.4,2.5-492.8,3.5-551,3.6c-40.9,0-74.4-8.3-106.7-9.4 c-57.3-1.9-150.5,1.8-149.6-9.6c1-12.2,85-16.2,113.8-17.7s539.4-5,577.7-4.2C969.4,819.6,1081.7,817.5,1081.6,843.3z"></path> <polygon class="st6" points="1085.7,362.1 1086.1,358.9 1085.7,362.1 "></polygon> <path class="st5" d="M941.8,837.4H558.5V190.1h383.3V837.4z M564.5,831.4h371.3V196.1H564.5V831.4z"></path> <path class="st7" d="M1375,850.8c0,0-0.5,9.9-36.5,12.6c-33.6,2.5-140,3.5-187.3,3.6c-33.3,0-60.5-8.3-86.8-9.4 c-46.6-1.9-122.4,1.8-121.6-9.6c0.8-12.2,69.1-16.2,92.6-17.7s177.9-5,209.1-4.2C1283.7,827.1,1375.1,825,1375,850.8z"></path> <rect x="564.6" y="367" class="st8" width="123.6" height="42"></rect> <path class="st5" d="M686.4,409.5H564v-43h372v43H811.2 M811,408.5h123.8v-41H565.2v41h121.2"></path> <rect x="579.8" y="386.6" class="st5" width="87.9" height="3"></rect> <rect x="827" y="386.6" class="st5" width="87.9" height="3"></rect> <rect x="811.2" y="367" class="st5" width="1.2" height="42"></rect> <rect x="685.2" y="367" class="st5" width="1.2" height="42"></rect> <rect x="607.7" y="248.9" class="st5" width="117.2" height="2"></rect> <rect x="688.7" y="437" class="st5" width="117.2" height="2"></rect> <rect x="688.7" y="455" class="st5" width="199.3" height="2.3"></rect> <rect x="688.7" y="473.6" class="st5" width="199.3" height="2.3"></rect> <rect x="688.7" y="492.6" class="st5" width="199.3" height="2.3"></rect> <rect x="607.7" y="265.9" class="st5" width="280.3" height="2"></rect> <rect x="607.7" y="280.7" class="st5" width="280.3" height="2.5"></rect> <rect x="607.7" y="297.9" class="st5" width="280.3" height="2"></rect> <rect x="559.8" y="153.5" class="st9" width="382.6" height="51.1"></rect> <polygon class="st10" points="586.6,188.3 577.7,179 586.6,169.8 588.6,171.7 581.6,179 588.6,186.3 "></polygon> <rect x="579.7" y="177.6" class="st10" width="26.1" height="2.8"></rect> <line class="st11" x1="1162.8" y1="491" x2="1164.7" y2="507.7"></line> <line class="st11" x1="1071.7" y1="507.7" x2="1070.9" y2="491"></line> <polygon class="st12" points="1013.1,813.1 1052.5,813.1 1062.2,786.5 1022.9,786.5 "></polygon> <path class="st13" d="M1070.4,553.2l-21.3,105.3l-32.4,128h54.5l46.1-152.8l2.4-8.1l2.4,160.9h56.6V642.2c0,0-0.7-57.7-5.3-92"></path> <polygon class="st12" points="1130.8,800 1169.6,798.7 1171,786.5 1130.8,786.5 "></polygon> <path class="st14" d="M1169.8,798.7l-39.2,1.1l-1.9,13.3l-19.4,10.6c-8.1,4.4-12.3,13.7-10.2,22.8h61c4.4,0,7.9-3.5,7.9-7.9 L1169.8,798.7z"></path> <path class="st14" d="M1017.1,801.2l-4,11.9l-35.6,13.4c-8,3-12.2,11.9-9.5,20h72.3l12.2-33.3l4.9-11.9L1017.1,801.2z"></path> <polygon class="st4" points="1066.6,537.9 1026.3,524.8 1009.9,447.4 1050.2,460.5 "></polygon> <polygon class="st4" points="1069,536.3 1028.6,523.2 1012.2,445.8 1052.6,458.9 "></polygon> <polygon class="st15" points="1050.2,460.5 1052.6,458.9 1069,536.3 1066.6,537.9 "></polygon> <polygon class="st15" points="1009.9,447.4 1012.2,445.8 1052.6,458.9 1050.2,460.5 "></polygon> <path class="st12" d="M1125.4,403c0,0-10.2,8.7-22.8,7.8c-8.1-0.6-10.7-5.1-10.7-5.1l5.9-8C1097.8,397.6,1122.7,399.8,1125.4,403z"></path> <circle class="st10" cx="910.9" cy="179.6" r="13.4"></circle> <path class="st16" d="M909.6,182.9v-1.2c0-0.3,0-0.5,0-0.8c0-0.2,0.1-0.4,0.2-0.6c0.1-0.2,0.2-0.4,0.4-0.5l0.6-0.6l1.7-1.7 c0.4-0.4,0.6-0.9,0.6-1.4c0-0.5-0.2-1-0.6-1.4c-0.4-0.4-0.9-0.6-1.4-0.5c-0.6,0-1.1,0.2-1.5,0.6c-0.4,0.4-0.6,1-0.7,1.5L906,176 c0.1-0.7,0.3-1.3,0.5-1.9c0.3-0.5,0.6-1,1.1-1.4c0.5-0.4,1-0.7,1.5-0.9c0.6-0.2,1.3-0.3,1.9-0.3c0.6,0,1.2,0.1,1.8,0.3 c0.5,0.2,1,0.5,1.5,0.8c0.4,0.4,0.8,0.8,1,1.3c0.2,0.6,0.4,1.2,0.3,1.8c0,0.4-0.1,0.9-0.2,1.3c-0.1,0.4-0.3,0.7-0.5,1 c-0.2,0.3-0.5,0.6-0.8,0.9l-0.9,0.9l-0.5,0.5c-0.1,0.1-0.3,0.3-0.4,0.4c-0.1,0.2-0.2,0.3-0.2,0.5c0,0.2-0.1,0.5-0.1,0.7v0.8 L909.6,182.9z M909.2,186c0-0.5,0.2-0.9,0.5-1.2c0.3-0.3,0.8-0.5,1.2-0.5c0.5,0,0.9,0.2,1.2,0.5c0.3,0.3,0.5,0.7,0.5,1.2 c0,0.5-0.2,0.9-0.5,1.2c-0.3,0.3-0.8,0.5-1.2,0.5c-0.2,0-0.5,0-0.7-0.1c-0.2-0.1-0.4-0.2-0.6-0.4c-0.2-0.2-0.3-0.3-0.4-0.5 C909.2,186.4,909.2,186.2,909.2,186L909.2,186z"></path> <path class="st17" d="M611,323h95c1.7,0,3,1.3,3,3v10.4c0,1.7-1.3,3-3,3h-95c-1.7,0-3-1.3-3-3V326C608,324.3,609.3,323,611,323z"></path> <path class="st18" d="M611,219h72c1.7,0,3,1.3,3,3v10.4c0,1.7-1.3,3-3,3h-72c-1.7,0-3-1.3-3-3V222C608,220.3,609.3,219,611,219z"></path> <path class="st19" d="M722,323h83c1.7,0,3,1.3,3,3v10.4c0,1.7-1.3,3-3,3h-83c-1.7,0-3-1.3-3-3V326C719,324.3,720.3,323,722,323z"></path> <rect x="685" y="367.2" class="st20" width="126" height="3.4"></rect> <path class="st1" d="M1172.4,525.5c-5.7-27.1-11.6-115.7-43.7-121.6c-1.2-0.2-2.5-0.4-3.7-0.6c-1.9,1.5-11.2,8.3-22.4,7.5 c-8.1-0.6-10.7-5.1-10.7-5.1c-11.5,5.5-14.6,16.3-17.6,24.8c-1.5,4.3-4.7,26.2-4.8,48.2s0.3,37.1,0.7,46l-0.3,0.5l0.4,0.2 c0.2,6.1,0.4,9.1,0.4,9.1s4.8-0.2,12.2-0.5l41,27.8c6.9,5.5,23.3,6.4,29.5-0.8l1.1-1c5-4.6,7.9-11.1,8.1-18c0.1-4.2,0-8.8-0.2-13.7 C1168.7,527.5,1172.6,526.5,1172.4,525.5z"></path> <path class="st12" d="M1081.8,505.1c-2.2-1.8-4.5-3.4-6.9-4.9c-1-0.5-2.8-1.5-5.3-2.6l0,0l-11.1-10.4l1.5,7l0,0 c-3.1-0.6-6.9-0.8-9.8-1.5c-2.9-0.7-5.7-1.7-8.4-3c-3.3-1.3-5.9-0.1-6.5,2.1c-0.7,2.2,0.5,4.6,2.8,5.3l10,3.6l8.8,1.3 c0,0-9.7,0.2-12-0.2c-2.3-0.6-4.6-1.5-6.7-2.5c-2.7-1-5.5,0.3-5.9,2.3s0.2,3.8,4.3,5.1c2.6,1,5.2,1.8,7.9,2.5c2.8,0.5,9,0.8,9,0.8 c-2.3,0.3-4.6,0.4-6.9,0.4c-2.6-0.1-7.1-0.9-7.1-0.9c-3.3-0.4-4.9,1.6-4.8,3.7c0.1,1.9,1.2,3.1,4.9,3.6c0,0,4.9,0.6,7.4,0.6 s8.1-0.8,8.1-0.8c-1.6,0.6-3.2,1.1-4.8,1.5c-1.9,0.3-3.9,0.4-5.8,0.5c-2.8,0.2-3.6,1.9-3.3,3.7s1.9,2.1,3.5,2.2c0,0,4.4-0.1,6.7-0.4 s5.2-0.6,5.2-0.6h10.6l2.8,1.5L1081.8,505.1z"></path> <path class="st12" d="M1126.7,366.3c0-0.4-0.1-0.8-0.2-1.1c-0.3-0.9-0.7-1.7-1.4-2.4c-0.3-0.3-0.5-0.5-0.8-0.7 c-0.8-0.6-1.7-0.9-2.7-1l-0.6-0.1l-24.8-8.9c-1.6,1.1-5.3,0.8-8.8-0.6l0,0c-0.2,0.5-0.3,1.1-0.5,1.6c-0.1,0.4-0.1,0.7-0.2,1.1 c0,0.2-0.1,0.4-0.1,0.6l-0.4,2.9l-1.7,13.8c-0.8,6.4,2.4,12.7,8,15.9l-0.6,18.2l0,0c0.5,0.8,1.2,1.5,2,2.1l0,0 c2.5,1.8,5.5,2.9,8.6,3c10.6,0.8,19.4-5.1,22-7.1l0,0l0.4-0.3l0,0l0.4,0.1l-7.1-27.9c0-0.2,0.1-0.5,0.1-0.7c1.9,0,3.8-0.7,5.2-2l0,0 c0.2-0.2,0.4-0.3,0.6-0.5l0.2-0.2l0.3-0.3c0.1-0.1,0.1-0.2,0.2-0.3s0.2-0.2,0.2-0.3l0,0l0.2-0.3l0.2-0.3c0,0,0-0.1,0.1-0.1l0.2-0.3 l0.1-0.2l0.1-0.1c0.1-0.1,0.1-0.3,0.2-0.4c0,0,0-0.1,0-0.1c0-0.1,0-0.1,0.1-0.2s0.1-0.3,0.1-0.5c0,0,0-0.1,0-0.1c0-0.1,0-0.1,0-0.2 c0.1-0.3,0.1-0.5,0.1-0.8C1126.5,367.1,1126.6,366.7,1126.7,366.3z"></path> <polygon class="st6" points="1085.7,362.1 1086.1,358.9 1085.7,362.1 "></polygon> <path class="st21" d="M1119,374.4h-0.4c0,0.1,0,0.2,0,0.3s-0.1,0.5-0.1,0.7c-0.2,0.7-0.4,1.4-0.7,2.1l2,3.4L1119,374.4z"></path> <path class="st21" d="M1098.4,389.4c-2.1-0.3-4.1-0.9-5.9-2l0,0l-0.2,5.8c0,0,9.1,1.3,14.9-4.9l0,0 C1104.4,389.4,1101.4,389.7,1098.4,389.4z"></path> <path class="st22" d="M1097.1,505.8l31.6,18.3l-8.2-46.9l0,0c-0.8,0.5,3,37.6,3,37.6s-19.1-9-24.2-11.1c-4.2-1.5-8.5-2.6-12.9-3.1 L1097.1,505.8z"></path> <path class="st22" d="M1072.4,526.9l-2-0.4v26.8c0,0,6.9,3.5,37.6,7.1c5,0.6,9.9,0.8,14.9,0.8L1072.4,526.9z"></path> <path class="st22" d="M1161.5,514.5c0.9,9.2,1.3,18.4,1.2,27.6c-0.1,5.4-2,10.7-5.4,15c9.1-2.2,16-5,19.3-7.2 c0,0-6.9-58.8-16.7-94.7C1159.9,455.2,1161.5,496.7,1161.5,514.5L1161.5,514.5z"></path> <path class="st23" d="M1227.1,679c-14.6-31.2,25.9-58.5,49.3-33.2c1.9,2,3.6,4.2,5.1,6.5c17.5,26.3,10.8,57.2,6.2,65.6 c0,0-37.9-3.8-57-32.5C1229.3,683.3,1228.1,681.2,1227.1,679z"></path> <rect x="1262" y="633.7" transform="matrix(0.8327 -0.5537 0.5537 0.8327 -165.0587 812.661)" class="st24" width="1" height="91.7"></rect> <rect x="1242.3" y="658.5" transform="matrix(2.792161e-02 -0.9996 0.9996 2.792161e-02 533.2797 1898.5687)" class="st24" width="1" height="33.2"></rect> <rect x="1253.7" y="668.5" transform="matrix(0.2755 -0.9613 0.9613 0.2755 279.8623 1709.4109)" class="st24" width="40.5" height="1"></rect> <rect x="1244.2" y="653.7" transform="matrix(0.2755 -0.9613 0.9613 0.2755 284.1994 1685.5114)" class="st24" width="32.2" height="1"></rect> <rect x="1250.8" y="703.5" class="st24" width="27.9" height="1"></rect> <path class="st25" d="M1287.6,753.3c-0.3,0-0.6-0.1-0.8-0.3c-0.7-0.5-0.9-1.4-0.4-2.1l39-57.6c0.5-0.7,1.4-0.9,2.1-0.4 c0.7,0.5,0.9,1.4,0.4,2.1l0,0l-39,57.6C1288.6,753,1288.1,753.3,1287.6,753.3z"></path> <path class="st25" d="M1286.8,767.6c-0.4,0-0.8-0.2-1.1-0.5l-16.6-18c-0.5-0.7-0.3-1.6,0.4-2.1c0.6-0.4,1.3-0.3,1.8,0.1l16.6,18 c0.6,0.6,0.5,1.5-0.1,2.1C1287.6,767.5,1287.2,767.7,1286.8,767.6L1286.8,767.6z"></path> <path class="st25" d="M1286.8,788.5L1286.8,788.5c-0.8,0-1.5-0.7-1.5-1.5l2.2-164c0-0.8,0.7-1.5,1.5-1.5l0,0c0.8,0,1.5,0.7,1.5,1.5 c0,0,0,0,0,0l-2.2,164C1288.3,787.8,1287.6,788.5,1286.8,788.5z"></path> <path class="st26" d="M1238.2,772.2h96.8l0,0v11.1c0,5.7-4.6,10.4-10.4,10.4l0,0h-76c-5.7,0-10.4-4.6-10.4-10.4l0,0L1238.2,772.2 L1238.2,772.2z"></path> <polygon class="st26" points="1324.1,841.1 1248.8,841.1 1241.8,772.2 1331.2,772.2 "></polygon> <path class="st27" d="M1340.1,660.8l-34.8,62.5c6.8,0.1,21.2-3.7,32.8-18.2C1349.4,691.1,1346.5,667.3,1340.1,660.8z"></path> <g> <defs> <path id="SVGID_1_" d="M1340.1,660.8l-34.8,62.5c6.8,0.1,21.2-3.7,32.8-18.2C1349.4,691.1,1346.5,667.3,1340.1,660.8z"></path> </defs> <clipPath id="SVGID_2_"> <use xlink:href="#SVGID_1_" style="overflow:visible;"></use> </clipPath> <g class="st28"> <rect x="1310.5" y="704.5" transform="matrix(0.9901 -0.14 0.14 0.9901 -85.6047 193.2614)" class="st24" width="40.2" height="1"></rect> <rect x="1315.8" y="685.4" transform="matrix(0.9901 -0.14 0.14 0.9901 -82.8817 193.808)" class="st24" width="40.2" height="1"></rect> </g> </g> <path class="st27" d="M1245.5,718.7l31.7,35.1c-5.2,0.8-16.3,0-26.4-7.8C1241.1,738.4,1241.2,723.4,1245.5,718.7z"></path> <g> <defs> <path id="SVGID_3_" d="M1245.5,718.7l31.7,35.1c-5.2,0.8-16.3,0-26.4-7.8C1241.1,738.4,1241.2,723.4,1245.5,718.7z"></path> </defs> <clipPath id="SVGID_4_"> <use xlink:href="#SVGID_3_" style="overflow:visible;"></use> </clipPath> <g class="st29"> <rect x="1239.5" y="750.2" transform="matrix(0.9998 -1.999600e-02 1.999600e-02 0.9998 -14.7611 25.2412)" class="st24" width="30.7" height="1"></rect> <rect x="1233.9" y="738.9" transform="matrix(0.9998 -1.999600e-02 1.999600e-02 0.9998 -14.5361 25.127)" class="st24" width="30.7" height="1"></rect> </g> </g> <path class="st30" d="M1279.5,621.3c15-31.1,61.7-17,56.9,17.2c-0.4,2.7-1,5.4-1.8,8.1c-9.3,30.2-37.4,44.6-46.8,46.3 c0,0-21-31.8-10.9-64.7C1277.5,625.7,1278.4,623.5,1279.5,621.3z"></path> <rect x="1255.5" y="648.5" transform="matrix(0.295 -0.9555 0.9555 0.295 297.242 1700.9506)" class="st24" width="91.7" height="1"></rect> <rect x="1291.9" y="614.4" transform="matrix(0.7918 -0.6108 0.6108 0.7918 -116.274 920.8333)" class="st24" width="1" height="33.2"></rect> <rect x="1296.5" y="650.7" transform="matrix(0.9187 -0.3949 0.3949 0.9187 -150.1549 572.9399)" class="st24" width="40.5" height="1"></rect> <rect x="1303.5" y="630.8" transform="matrix(0.918 -0.3965 0.3965 0.918 -142.163 574.9846)" class="st24" width="32.2" height="1"></rect> <rect x="1283.4" y="652.3" transform="matrix(0.7744 -0.6327 0.6327 0.7744 -131.888 962.6336)" class="st24" width="1" height="27.9"></rect> <rect x="1244.3" y="792.1" class="st31" width="85" height="3"></rect> <path class="st32" d="M1049.2,575.1L1049.2,575.1c1.5-0.1,2.8,0.7,3.5,2c0-0.1,0.1-0.2,0.2-0.3c0.6-2.5,3.1-4.1,5.6-3.8 c1.2,0.1,2.4,0.8,3.1,1.8c0.9,1.3,1.2,2.9,0.9,4.5c-0.1,0.2-0.3,0.4-0.5,0.4h-0.1c-0.3-0.1-0.4-0.3-0.4-0.6c0,0,0,0,0,0 c0.2-1.3,0-2.6-0.7-3.7c-0.6-0.8-1.4-1.3-2.4-1.4c-3.9-0.5-4.7,3.6-4.7,3.7c0,0.1-0.1,0.2-0.2,0.3l-0.4,1.7l0,0l-1.5,5.9 c-0.1,0.2-0.3,0.4-0.5,0.4h-0.1c-0.3-0.1-0.4-0.3-0.4-0.6l1.5-5.9c0.3-1.5-0.6-3-2.1-3.3c-0.3-0.1-0.6-0.1-0.8-0.1l0,0 c-2,0-2.2,2.6-2.3,2.7c0,0.3-0.3,0.5-0.5,0.5c-0.3,0-0.5-0.3-0.5-0.5c0,0,0,0,0,0C1046.1,577.5,1046.9,575.1,1049.2,575.1z"></path> <polygon class="st22" points="1072,498 1072,467 1068.2,495.9 "></polygon> <rect x="687" y="384" class="st10" width="124" height="16"></rect> <path class="st6" d="M1078.2,345.8c0.8-4.9,4.4-6.5,8.6-6.5c0.4-3,2.7-10.1,15-3.9c5.1-0.8,10.3-0.8,15.5,0 c5.4,0.9,10.8,4.1,13.1,8.8c2.9,5.8,1.2,22.1-7.2,31.9l0,0c-1.2,1.6-2.7,3-4.3,4.1l-1.1-4.6c0.1-0.3,0.1-0.5,0.2-0.8 c1.7,0,3.3-0.6,4.6-1.5c0.7-0.5,1.3-1.1,1.8-1.7l0,0c0.2-0.2,0.3-0.4,0.4-0.6l0.1-0.2c0.1-0.2,0.2-0.4,0.3-0.5 c0-0.1,0.1-0.1,0.1-0.2l0.2-0.5c0-0.1,0.1-0.2,0.1-0.3s0.1-0.4,0.2-0.6s0-0.2,0.1-0.2c0.1-0.3,0.1-0.5,0.2-0.8c0.4-3.2-1.8-6-5-6.5 l-0.7-0.1l-1,7.7l-0.6-0.2l0,0l-0.4-0.1c-4.9-1.5-9-4.7-11.8-9l-2.8-4.3l0,0c-8.6,4.5-12-2.3-12-2.3c-1.8,0.8-3.7,1.3-5.6,1.6 c0,0.2-0.1,0.3-0.1,0.5l-0.9,7.3l0,0l1-7.8C1079.2,355.2,1077.7,349.3,1078.2,345.8z"></path> <path class="st33" d="M608.2,433.7h54.9c1,0,1.8,0.8,1.8,1.8v54.9c0,1-0.8,1.8-1.8,1.8h-54.9c-1,0-1.8-0.8-1.8-1.8v-54.9 C606.4,434.5,607.2,433.7,608.2,433.7z"></path> <path class="st33" d="M690.2,510.6h38c1,0,1.8,0.8,1.8,1.8v38c0,1-0.8,1.8-1.8,1.8h-38c-1,0-1.8-0.8-1.8-1.8v-38 C688.4,511.5,689.2,510.6,690.2,510.6z"></path> <path class="st33" d="M749.2,510.6h38c1,0,1.8,0.8,1.8,1.8v38c0,1-0.8,1.8-1.8,1.8h-38c-1,0-1.8-0.8-1.8-1.8v-38 C747.4,511.5,748.2,510.6,749.2,510.6z"></path> <path class="st33" d="M808.2,510.6h38c1,0,1.8,0.8,1.8,1.8v38c0,1-0.8,1.8-1.8,1.8h-38c-1,0-1.8-0.8-1.8-1.8v-38 C806.4,511.5,807.2,510.6,808.2,510.6z"></path> <path class="st34" d="M627,482.9h0.3c0.6,0,1.1,0.5,1.1,1.1v3.9c0,0.6-0.5,1.1-1.1,1.1H627c-0.6,0-1.1-0.5-1.1-1.1v-3.9 C625.9,483.3,626.4,482.9,627,482.9z"></path> <path class="st34" d="M634,482.9h0.3c0.6,0,1.1,0.5,1.1,1.1v3.9c0,0.6-0.5,1.1-1.1,1.1H634c-0.6,0-1.1-0.5-1.1-1.1v-3.9 C633,483.3,633.4,482.9,634,482.9z"></path> <path class="st34" d="M641.5,482.9h0.3c0.6,0,1.1,0.5,1.1,1.1v3.9c0,0.6-0.5,1.1-1.1,1.1h-0.3c-0.6,0-1.1-0.5-1.1-1.1v-3.9 C640.5,483.3,641,482.9,641.5,482.9z"></path> <path class="st34" d="M647.2,482.9h0.3c0.6,0,1.1,0.5,1.1,1.1v3.9c0,0.6-0.5,1.1-1.1,1.1h-0.3c-0.6,0-1.1-0.5-1.1-1.1v-3.9 C646.1,483.3,646.6,482.9,647.2,482.9z"></path> <path class="st34" d="M632.7,434.4l0.4-0.1c0.8-0.2,1.7,0.4,1.8,1.2l2.7,14.6c0.2,0.8-0.4,1.7-1.2,1.8l-0.4,0.1 c-0.8,0.2-1.7-0.4-1.8-1.2l-2.7-14.6C631.3,435.4,631.9,434.6,632.7,434.4z"></path> <rect x="624" y="461.8" class="st35" width="17.1" height="22.7"></rect> <rect x="638.3" y="461.8" class="st36" width="11.8" height="22.7"></rect> <rect x="630.6" y="459.5" class="st37" width="12.8" height="2.3"></rect> <rect x="627.4" y="457.3" class="st37" width="19.2" height="2.3"></rect> <rect x="625" y="455" class="st34" width="24" height="2.3"></rect> <rect x="632.4" y="457.3" class="st35" width="9.3" height="2.3"></rect> <rect x="627.4" y="452.7" class="st37" width="19.2" height="2.3"></rect> <rect x="631" y="452.7" class="st35" width="7.3" height="2.3"></rect> <rect x="644" y="452.7" class="st35" width="2.7" height="2.3"></rect> <rect x="631.6" y="444.1" class="st34" width="10.9" height="8.6"></rect> <rect x="631.6" y="444.5" class="st35" width="10.9" height="1.2"></rect> <rect x="631.6" y="446.7" class="st35" width="10.9" height="1.2"></rect> <rect x="631.6" y="448.9" class="st35" width="10.9" height="1.2"></rect> <rect x="631.6" y="451.1" class="st35" width="10.9" height="1.2"></rect> <rect x="688.7" y="608" class="st5" width="117.2" height="2"></rect> <rect x="564" y="576.9" class="st5" width="377" height="0.7"></rect> <rect x="564" y="692.9" class="st5" width="377" height="0.7"></rect> <rect x="688.7" y="626" class="st5" width="199.3" height="2.3"></rect> <rect x="688.7" y="644.6" class="st5" width="199.3" height="2.3"></rect> <rect x="688.7" y="663.6" class="st5" width="199.3" height="2.3"></rect> <path class="st33" d="M608.2,604.7h54.9c1,0,1.8,0.8,1.8,1.8v54.9c0,1-0.8,1.8-1.8,1.8h-54.9c-1,0-1.8-0.8-1.8-1.8v-54.9 C606.4,605.5,607.2,604.7,608.2,604.7z"></path> <circle class="st38" cx="667.8" cy="761.2" r="31.8"></circle> <circle class="st39" cx="834.2" cy="761.2" r="31.8"></circle> <ellipse transform="matrix(0.8481 -0.5298 0.5298 0.8481 -240.5674 435.4153)" class="st40" cx="639.2" cy="637.3" rx="28.1" ry="8.4"></ellipse> <rect x="608.5" y="628.1" transform="matrix(0.8481 -0.5298 0.5298 0.8481 -238.7196 433.3684)" class="st40" width="56.1" height="10"></rect> <ellipse transform="matrix(0.8481 -0.5298 0.5298 0.8481 -236.8734 431.3162)" class="st36" cx="633.9" cy="628.8" rx="28.1" ry="8.4"></ellipse> <ellipse transform="matrix(0.8486 -0.5291 0.5291 0.8486 -237.0588 431.4834)" class="st33" cx="635.2" cy="629.9" rx="13.1" ry="3.9"></ellipse> <path class="st41" d="M637,633.8c-7.8,4.8-15.2,6.5-16.9,3.7s3-8.8,10.7-13.6s15.2-6.5,16.9-3.7S644.8,628.9,637,633.8z M631.1,624.3c-7.2,4.5-12.1,10.4-10.5,12.8s8.9,0.7,16.1-3.9s12.1-10.4,10.5-12.8S638.3,619.8,631.1,624.3L631.1,624.3z"></path> <path class="st36" d="M643,637.9c-0.5,0.3-1.2-0.1-2.1-0.4s-1.6-0.7-1.9-0.4s-0.4,1.1-0.4,1.9s-0.1,1.8-0.6,2.1s-1.3-0.1-2.2-0.5 c-0.7-0.3-1.4-0.7-1.8-0.5s-0.5,1.1-0.6,1.9s-0.2,1.8-0.7,2s-1.3-0.2-2.2-0.7c-0.6-0.4-1.4-0.8-1.7-0.7s-0.6,1.1-0.7,1.9 s-0.3,1.7-0.8,1.9s-1.4-0.3-2.1-0.9s-1.3-0.9-1.6-0.8s-0.7,1-1,1.8s-0.5,1.7-1,1.8s-1.4-0.5-2.1-1.2c-0.5-0.5-1.1-1-1.4-1 c-0.5,0.1-1,1-1.3,1.8s-0.7,1.5-1.1,1.5c-1.2,0.1-1.5-0.8-1.8-1.5c-0.3-0.6-0.5-1.2-1.1-1.2c-0.1,0-0.1-0.1-0.1-0.2c0,0,0,0,0,0 c0-0.1,0.1-0.1,0.1-0.1c0,0,0,0,0,0c0.7,0.1,1,0.8,1.3,1.4s0.6,1.5,1.5,1.4c0.3,0,0.6-0.7,0.9-1.3c0.4-0.9,0.9-1.8,1.5-2 c0.5-0.1,1,0.4,1.7,1s1.3,1.2,1.8,1.1s0.6-0.9,0.8-1.6c0.3-0.9,0.6-1.8,1.1-2s1.2,0.3,1.9,0.9s1.4,1,1.8,0.9s0.5-1,0.7-1.7 c0.2-0.9,0.4-1.8,0.9-2.1s1.2,0.2,2,0.7s1.5,0.9,1.9,0.7s0.4-1,0.5-1.8c0.1-1,0.2-1.8,0.7-2.1s1.2,0.1,2,0.5s1.5,0.8,1.9,0.5l0,0 c0.3-0.2,0.4-1.1,0.4-1.8c0-1,0.1-1.8,0.6-2.2s1.3,0,2.2,0.4c0.7,0.3,1.5,0.6,1.8,0.4l0,0c0.4-0.2,0.3-1.2,0.3-2s0-1.8,0.4-2.1 s1.3,0,2.2,0.3c0.7,0.2,1.5,0.5,1.8,0.3s0.3-1.2,0.2-2s-0.2-1.7,0.2-2.1s1.4-0.1,2.3,0.1s1.6,0.4,1.8,0.2s0.2-1.2,0-2 s-0.3-1.7,0.1-2.1s1.4-0.3,2.3-0.1c0.7,0.1,1.5,0.3,1.8,0s0-1.3-0.2-2.1s-0.5-1.6-0.2-2c0.4-0.5,1.4-0.5,2.4-0.5 c0.7,0,1.5,0,1.6-0.2c0.5-0.8,0-1.4-0.5-2s-0.9-1.1-0.7-1.8c0-0.1,0.1-0.1,0.2-0.1c0.1,0,0.1,0.1,0.1,0.2c-0.2,0.5,0.2,1,0.6,1.5 s1.2,1.4,0.5,2.3c-0.2,0.4-1,0.4-1.9,0.3s-1.9,0-2.2,0.4c-0.2,0.3,0,1,0.2,1.7c0.3,0.9,0.6,1.9,0.1,2.4s-1.2,0.2-2.1,0.1 s-1.7-0.3-2,0s-0.1,1,0,1.8s0.3,1.9-0.1,2.3s-1.2,0.1-2.1-0.1s-1.7-0.4-2-0.2s-0.2,1.1-0.2,1.8c0.1,1,0.2,1.9-0.3,2.2 s-1.2,0-2.1-0.3s-1.6-0.6-2-0.3s-0.3,1.1-0.3,1.8c0,1,0,1.9-0.5,2.2L643,637.9z"></path> <path class="st36" d="M645.4,641.7c-0.5,0.3-1.2,0-2.1-0.4s-1.5-0.7-1.9-0.5s-0.4,1.1-0.4,1.9s-0.1,1.8-0.5,2.1l0,0 c-0.5,0.3-1.3-0.1-2.2-0.5c-0.7-0.3-1.4-0.7-1.8-0.5s-0.5,1.1-0.6,1.9s-0.2,1.8-0.7,2s-1.3-0.2-2.2-0.7c-0.7-0.4-1.4-0.8-1.7-0.7 s-0.6,1.1-0.7,1.9s-0.3,1.7-0.8,1.9s-1.3-0.3-2.1-0.9s-1.3-0.9-1.6-0.8s-0.7,1-1,1.8s-0.5,1.7-1,1.8s-1.4-0.5-2.1-1.2 c-0.5-0.5-1.1-1-1.4-1c-0.5,0.1-1,1-1.3,1.8s-0.7,1.5-1.1,1.5c-1.2,0.1-1.5-0.8-1.8-1.5c-0.2-0.6-0.5-1.2-1.1-1.2 c-0.1,0-0.2,0-0.2-0.1c0-0.1,0-0.2,0.1-0.2c0,0,0.1,0,0.1,0c0.7,0.1,1,0.8,1.3,1.4s0.6,1.5,1.5,1.4c0.3,0,0.6-0.7,0.9-1.3 c0.4-0.9,0.9-1.8,1.5-2c0.5-0.1,1,0.4,1.7,1s1.3,1.2,1.8,1.1s0.6-0.9,0.8-1.6c0.3-0.9,0.5-1.8,1.1-2s1.2,0.3,1.9,0.9s1.4,1,1.8,0.9 s0.5-1,0.7-1.7c0.2-0.9,0.4-1.8,0.9-2.1s1.2,0.2,2,0.7s1.5,0.9,1.9,0.7s0.4-1,0.5-1.8c0.1-1,0.2-1.8,0.7-2.1s1.2,0.1,2,0.5 s1.5,0.8,1.9,0.6l0,0c0.3-0.2,0.4-1.1,0.4-1.8c0-1,0.1-1.8,0.6-2.2s1.3,0,2.2,0.4c0.7,0.3,1.5,0.7,1.8,0.4s0.3-1.2,0.3-2 s0-1.8,0.4-2.1s1.3,0,2.2,0.3c0.7,0.3,1.5,0.5,1.8,0.3s0.3-1.2,0.2-2s-0.2-1.8,0.3-2.1s1.4-0.1,2.3,0.1c0.7,0.2,1.6,0.4,1.8,0.2 s0.2-1.2,0-2s-0.3-1.7,0.1-2.1s1.4-0.3,2.3-0.1c0.7,0.1,1.5,0.3,1.8,0s0-1.3-0.2-2.1s-0.5-1.6-0.2-2c0.4-0.5,1.4-0.5,2.4-0.5 c0.7,0,1.5,0,1.6-0.2c0.5-0.8,0-1.4-0.5-2s-0.9-1.1-0.7-1.8c0-0.1,0.1-0.1,0.2,0c0,0,0.1,0.1,0.1,0.1c-0.2,0.5,0.2,1,0.6,1.5 s1.2,1.4,0.5,2.3c-0.2,0.4-1,0.4-1.9,0.3s-1.9,0-2.2,0.4c-0.2,0.3,0,1,0.2,1.7c0.3,0.9,0.6,1.9,0.1,2.4s-1.2,0.2-2.1,0.1 s-1.7-0.3-2,0s-0.1,1,0,1.8c0.2,0.9,0.3,1.9-0.1,2.3s-1.2,0.1-2.1-0.1s-1.7-0.5-2-0.2s-0.2,1.1-0.2,1.8c0.1,1,0.2,1.9-0.3,2.2 s-1.2,0-2.1-0.3s-1.6-0.6-2-0.3s-0.3,1.1-0.3,1.8c0,1,0,1.9-0.5,2.2L645.4,641.7z"></path> <polygon class="st42" points="837.6,766.1 828.3,775 819.1,766.1 821,764.1 828.3,771.1 835.6,764.1 "></polygon> <polygon class="st42" points="853.1,750 836.9,767 834.8,765 851,748 "></polygon> <polygon class="st42" points="677.6,754.1 668.3,763 659.1,754.1 661,752.1 668.3,759.1 675.6,752.1 "></polygon> <polygon class="st42" points="677.6,770 668.3,761.1 659.1,770 661,772 668.3,765 675.6,772 "></polygon> <path class="st43" d="M569.9,403.8l7.3-17.2c2.6-6.1,7.3-11,13.2-14l16.2-8.1c1.5-0.7,3.3,0,4,1.5c0.6,1.2,0.2,2.7-0.8,3.5l-15.9,13 l0.3,1.3c2.5,10.4-1,21.4-9.2,28.4l-0.8,0.6L568.2,432l-18.8-11.3L569.9,403.8z"></path> <path class="st43" d="M477.2,341.3l-2.1-17.1c-1.2-9.6-10-16.4-19.6-15.2l0,0c-9.6,1.2-16.4,10-15.2,19.6c0,0,0,0,0,0l-0.4,1.9 l-0.7,0.1c-3.2,0.4-5.5,3.4-5.2,6.6c0.5,4.2,4.1,7.4,8.3,7.5c0,0.3,0.1,0.5,0.1,0.8l-6.8,28.5c0,0,10,8.1,23,7.6 c8.4-0.3,10.4-6.1,10.4-6.1l-0.3-17.7C474.7,354.5,478,348,477.2,341.3z"></path> <polyline class="st13" points="473.7,488 474.5,471.4 382.8,471.4 380.9,488 "></polyline> <rect x="431.9" y="766.3" class="st43" width="39.3" height="26.6"></rect> <path class="st44" d="M447,487.9L447,487.9l-12.1-0.1l-16.1-0.1l0,0v0.1h-37.9l-6.1,27.9c-6.9,28.2-10,63.7-11.6,81.8 c-0.9,12.4-0.9,24.9,0,37.3l-19.3,131.5h56.5l22.7-125.6l1.3-8.2L423,766.3h48.6l2.2-125.5l0,0V488L447,487.9z"></path> <polygon class="st43" points="387.9,792.9 350.7,778.5 351.6,766.3 391.7,766.3 "></polygon> <path class="st14" d="M407.2,803.5l-19.3-10.6l1.9-13.3l-39.1-1.1l-2.1,39.8c0,4.4,3.5,7.9,7.9,7.9h60.9 C419.5,817.2,415.3,807.9,407.2,803.5z"></path> <path class="st14" d="M506.8,806.2l-35.5-13.3V781h-39.3v37.3c0,4.4,3.5,7.9,7.9,7.9h76.4C519,818.1,514.8,809.3,506.8,806.2z"></path> <path class="st45" d="M443.5,344.6c-0.6,0.1-1.2,0.1-1.7,0L441,351l4-6.6L443.5,344.6z"></path> <path class="st45" d="M462.9,359.7L462.9,359.7c-3,0.4-6.1,0-9-1.1l0,0c6,6.4,15,5.3,15,5.3l0.1-6.2l0,0 C467.1,358.7,465.1,359.4,462.9,359.7z"></path> <path class="st33" d="M556.8,403l-29.7,25.1l-47.2-42.4c-1.5-1.7-3.2-3.2-5-4.5l-6-5.4c-0.1,0.2-0.2,0.5-0.4,0.7v0.9l-0.5-0.2 c-1.3,1.7-4.1,4.2-9.4,4.4c-12.9,0.4-22.7-7.4-23-7.6c-1.2,0.2-2.5,0.4-3.8,0.6c-7.9,1.4-26.7,16.2-37,35.8 c-18.5,35.2-24.6,101.8-26,120.2c-0.4,5.3,30.6,17.4,56.8,18.6c43.1,1.9,51.8-5.2,51.8-5.2s0.3-2.4,0.8-6.6l5.4-50.2 c1-10.3,1.8-21.2,2.5-31.9c0.2-3,0.4-6,0.6-8.9l30.5,20.5c17.2,9,30.1,4.4,40.2-7.9l32.3-40.9L556.8,403z"></path> <polygon class="st46" points="472.6,546 449.7,484.5 444.5,406.6 445.2,406.4 450.4,483.6 473,544.7 "></polygon> <polygon class="st46" points="411.9,485.7 402.1,421.9 403.1,421.8 412.9,485.1 436,550 435,550 "></polygon> <path class="st46" d="M488.8,408.6c0.7,9.7-0.6,19.3-2.1,38.4l6.3,3.6c5.8-36.1-2-55.4-14.9-66.6C486,391.4,488.4,402.4,488.8,408.6 z"></path> <path class="st46" d="M469.2,377.7l-0.2-0.1l0,0L469.2,377.7z"></path> <path class="st13" d="M477.7,320.2L477.7,320.2c-0.4-2.4-1.3-4.7-2.7-6.6c-4.2-6.3-13.9-8-20.9-8.3c0.5-1.4,0.8-2.8,1-4.2 c1.7-12.1-6.8-23.3-18.9-25c-12.1-1.7-23.3,6.8-25,18.9s6.8,23.3,18.9,25c0,0,0,0,0,0c1,0.1,2,0.2,3.1,0.2c-0.4,1.1-0.8,2.2-1,3.4 c-0.3,1.6-0.3,3.2-0.2,4.7c0,0.1,0,0.2,0,0.4c0,0.1,0,0.2,0,0.3v0.3c0.4,2.8,2.1,7.9,3.1,13.8l0,0c0.5,2.5,4.3,5.9,5.8,7.9l1-6 c-1.7-0.6-4.8-1.5-5.7-2.9c-0.1-0.1-0.1-0.2-0.1-0.2c-0.1-0.1-0.1-0.2-0.2-0.3c-0.1-0.1-0.1-0.2-0.1-0.3c-0.1-0.1-0.1-0.2-0.1-0.3 c0-0.1-0.1-0.2-0.1-0.4s-0.1-0.2-0.1-0.3s-0.1-0.2-0.1-0.4s0-0.2-0.1-0.3s0-0.3-0.1-0.4c0-0.1,0-0.2,0-0.3v-0.4c0-0.1,0-0.2,0-0.3 s0-0.3,0-0.5c0-0.1,0-0.2,0-0.2c0-0.3,0.1-0.5,0.1-0.8l0.3-1.4c0.4-2.3,2.6-3.8,4.9-3.4c0.2,0,0.4,0.1,0.6,0.1l0.1,0.1l0.4,0.2 l0.1,0.1c2,1,3.1,3.2,2.7,5.4v0.2c-0.1,0.7-0.1,1.4,0,2.1c0,0.6,0.6,1.1,1.2,1.1c0.4,0,0.7-0.2,0.9-0.5c1.2-2.5,2.6-4.9,4.1-7.1l0,0 h0.3l3.3,0.3l3.3-5.3l1.5,5.7l15.9,1.3c0,0.3-0.1,0.7-0.2,1l0.2-1l2.9,0.2C477.8,335.7,478.3,324.5,477.7,320.2z"></path> <rect x="703.4" y="386.6" class="st5" width="87.9" height="3"></rect> <path class="st2" d="M495.8,562l-51.1,29.3c-2.4,1.3-5.4,0.5-6.7-1.9c0,0,0,0,0-0.1l0,0c-1.3-2.4-0.4-5.4,2-6.7c0,0,0,0,0,0 l52.3-27.1L495.8,562z"></path> <circle class="st3" cx="442.5" cy="587" r="2.4"></circle> <path class="st2" d="M516.8,552l-9.8,5.3l-5.5-10l9.3-5.1c-4-2.4-9.5-3.1-13.9-0.7c-6.7,3.7-9.1,12-5.5,18.7s12,9.1,18.7,5.5 C514.9,563.1,516.9,556.9,516.8,552z"></path> <path class="st2" d="M489.9,551.3c-1,4-3.7,7.3-7.3,9.2l9.9-4.3L489.9,551.3z"></path> <path class="st2" d="M498,566.2c-2.5-0.9-6.1-1.5-11.6,1.2l8.9-6L498,566.2z"></path> <polygon class="st4" points="501.5,547.3 502.4,546.8 499,540.6 498.2,540.9 "></polygon> <polygon class="st4" points="510.9,542.2 511.8,542.8 502,548.2 501.5,547.3 "></polygon> <polygon class="st4" points="507.9,556.8 507,557.3 511.2,565 512.3,564.2 "></polygon> <path class="st45" d="M487.7,581.9c-8.1-25.7-25-35.7-25-35.7l-22.4,6.7l15.8,24.6c0,0.7,0.1,1.3,0.4,1.9l7,13.5 c1.3,2.1,4,2.9,6.2,1.8c1.8-0.8,2.9-2.7,2.6-4.6c1.5,1.2,3.5,1.4,5.3,0.6c1.5-0.7,2.6-2.2,2.7-3.8c1.5,0.9,3.3,1,4.8,0.2 C487,586.1,488.1,584,487.7,581.9L487.7,581.9z"></path> <polygon class="st33" points="442,567 476,555 470,540 435.1,547.5 "></polygon> <path class="st10" d="M752.3,161.2l-14.3,8.3V186l14.3,8.3l14.3-8.3v-16.5L752.3,161.2z M747.7,185.1c0,0.1-0.1,0.1-0.1,0.1l0,0 h-4.4c-0.1,0-0.1-0.1-0.1-0.1c0,0,0,0,0,0v-12.4c0-0.1,0.1-0.1,0.1-0.1l0,0h4.4c0.1,0,0.1,0.1,0.1,0.1l0,0V185.1z M761.5,175 C761.5,175,761.4,175.1,761.5,175L761.5,175l-4.5,0.1c-0.1,0-0.1,0-0.1,0.1c0,0,0,0,0,0v0.7c0,0.1,0,0.1,0.1,0.1l0,0h4.4 c0.1,0,0.1,0,0.1,0.1c0,0,0,0,0,0v2.3c0,0.1,0,0.1-0.1,0.1l0,0H757c-0.1,0-0.1,0-0.1,0.1c0,0,0,0,0,0v0.7c0,0.1,0,0.1,0.1,0.1l0,0 h4.4c0.1,0,0.1,0,0.1,0.1v2.3c0,0.1,0,0.1-0.1,0.1H757c-0.1,0-0.1,0-0.1,0.1v0v0.7c0,0.1,0,0.1,0.1,0.1l0,0h4.4c0.1,0,0.1,0,0.1,0.1 v2.3c0,0.1,0,0.1-0.1,0.1h-12.6c-0.1,0-0.1,0-0.1-0.1l0,0v-12.5c0-0.1,0-0.1,0-0.2l2.4-3.6c0,0,0,0,0-0.1l0.7-2.4 c0-0.1,0.1-0.1,0.1-0.1h2c0,0,0.1,0,0.1,0.1c0,0,0,0,0,0l0,2.4c0,0,0,0,0,0.1l-1.2,3.6c0,0,0,0.1,0,0.1c0,0,0,0,0,0h8.4 c0.1,0,0.1,0,0.1,0.1c0,0,0,0,0,0V175z"></path> </svg> 